<svg width="20" height="6" viewBox="0 0 20 6" fill="none" xmlns="http://www.w3.org/2000/svg">
<path d="M10.0003 0.666687C8.71699 0.666687 7.66699 1.71669 7.66699 3.00002C7.66699 4.28335 8.71699 5.33335 10.0003 5.33335C11.2837 5.33335 12.3337 4.28335 12.3337 3.00002C12.3337 1.71669 11.2837 0.666687 10.0003 0.666687ZM17.0003 0.666687C15.717 0.666687 14.667 1.71669 14.667 3.00002C14.667 4.28335 15.717 5.33335 17.0003 5.33335C18.2837 5.33335 19.3337 4.28335 19.3337 3.00002C19.3337 1.71669 18.2837 0.666687 17.0003 0.666687ZM3.00033 0.666687C1.71699 0.666687 0.666992 1.71669 0.666992 3.00002C0.666992 4.28335 1.71699 5.33335 3.00033 5.33335C4.28366 5.33335 5.33366 4.28335 5.33366 3.00002C5.33366 1.71669 4.28366 0.666687 3.00033 0.666687Z" fill="#1A71FF"/>
</svg>
