<svg width="25" height="25" viewBox="0 0 25 25" fill="none" xmlns="http://www.w3.org/2000/svg">
<path d="M16.9552 7.17801V6.87752C16.9552 4.66397 15.1624 2.87109 12.9488 2.87109C10.7353 2.87109 8.94238 4.66397 8.94238 6.87752V11.8856" stroke="#EE6E6E" stroke-width="1.66129" stroke-linecap="round" stroke-linejoin="round"/>
<path d="M9.9834 15.0807C10.7146 15.892 11.7763 16.3928 12.9482 16.3928C15.1617 16.3928 16.9546 14.5999 16.9546 12.3863V11.8855" stroke="#EE6E6E" stroke-width="1.66129" stroke-linecap="round" stroke-linejoin="round"/>
<path d="M7.71973 17.8451C9.09193 19.1172 10.9249 19.8984 12.9481 19.8984C17.1749 19.8984 20.6104 16.4629 20.6104 12.2361V10.5334" stroke="#EE6E6E" stroke-width="1.66129" stroke-linecap="round" stroke-linejoin="round"/>
<path d="M5.28516 10.5334V12.2361C5.28516 13.2978 5.49549 14.2994 5.88612 15.2209" stroke="#EE6E6E" stroke-width="1.66129" stroke-linecap="round" stroke-linejoin="round"/>
<path d="M21.0302 3.7124L4.86426 19.8884" stroke="#EE6E6E" stroke-width="1.66129" stroke-linecap="round" stroke-linejoin="round"/>
<path d="M11.9463 3.87268V6.8775" stroke="#EE6E6E" stroke-width="1.66129" stroke-linecap="round" stroke-linejoin="round"/>
<path d="M12.9482 19.8984V22.9032" stroke="#EE6E6E" stroke-width="1.66129" stroke-linecap="round" stroke-linejoin="round"/>
</svg>
